<?xml version="1.0" encoding="UTF-8"?>
<svg width="200px" height="200px" viewBox="0 0 200 200" version="1.1" xmlns="http://www.w3.org/2000/svg" xmlns:xlink="http://www.w3.org/1999/xlink">
  <defs>
    <linearGradient x1="0%" y1="0%" x2="100%" y2="100%" id="blockchainGradient">
      <stop stop-color="#FFC107" offset="0%"></stop>
      <stop stop-color="#FFA000" offset="100%"></stop>
    </linearGradient>
    <linearGradient x1="0%" y1="0%" x2="100%" y2="100%" id="ethereumGradient">
      <stop stop-color="#627EEA" offset="0%"></stop>
      <stop stop-color="#3C5CDD" offset="100%"></stop>
    </linearGradient>
    <filter id="glow" x="-20%" y="-20%" width="140%" height="140%">
      <feGaussianBlur stdDeviation="4" result="blur" />
      <feComposite in="SourceGraphic" in2="blur" operator="over" />
    </filter>
  </defs>

  <g id="blockchain" stroke="none" stroke-width="1" fill="none" fill-rule="evenodd">
    <!-- Blockchain Structure -->
    <!-- Block 1 -->
    <g transform="translate(40, 30)" filter="url(#glow)">
      <rect x="0" y="0" width="50" height="40" rx="4" fill="url(#blockchainGradient)"></rect>
      <rect x="5" y="5" width="40" height="8" rx="2" fill="#FFFFFF" fill-opacity="0.3"></rect>
      <rect x="5" y="17" width="40" height="4" rx="1" fill="#FFFFFF" fill-opacity="0.2"></rect>
      <rect x="5" y="25" width="30" height="4" rx="1" fill="#FFFFFF" fill-opacity="0.2"></rect>
    </g>
    
    <!-- Block 2 -->
    <g transform="translate(75, 80)" filter="url(#glow)">
      <rect x="0" y="0" width="50" height="40" rx="4" fill="url(#blockchainGradient)"></rect>
      <rect x="5" y="5" width="40" height="8" rx="2" fill="#FFFFFF" fill-opacity="0.3"></rect>
      <rect x="5" y="17" width="40" height="4" rx="1" fill="#FFFFFF" fill-opacity="0.2"></rect>
      <rect x="5" y="25" width="30" height="4" rx="1" fill="#FFFFFF" fill-opacity="0.2"></rect>
    </g>
    
    <!-- Block 3 -->
    <g transform="translate(40, 130)" filter="url(#glow)">
      <rect x="0" y="0" width="50" height="40" rx="4" fill="url(#blockchainGradient)"></rect>
      <rect x="5" y="5" width="40" height="8" rx="2" fill="#FFFFFF" fill-opacity="0.3"></rect>
      <rect x="5" y="17" width="40" height="4" rx="1" fill="#FFFFFF" fill-opacity="0.2"></rect>
      <rect x="5" y="25" width="30" height="4" rx="1" fill="#FFFFFF" fill-opacity="0.2"></rect>
    </g>
    
    <!-- Connection Chains -->
    <path d="M65,50 L75,50 L75,80" stroke="#FFC107" stroke-width="2" stroke-dasharray="4,2"></path>
    <path d="M100,120 L100,130 L90,130" stroke="#FFC107" stroke-width="2" stroke-dasharray="4,2"></path>
    
    <!-- Ethereum Symbol -->
    <g transform="translate(110, 50)" filter="url(#glow)">
      <polygon points="30 0 60 30 30 60 0 30" fill="url(#ethereumGradient)"></polygon>
      <polygon points="30 0 30 23 60 30" fill="#FFFFFF" fill-opacity="0.2"></polygon>
      <polygon points="30 60 30 37 0 30" fill="#FFFFFF" fill-opacity="0.1"></polygon>
      <polygon points="30 32 60 24 30 45" fill="#FFFFFF" fill-opacity="0.2"></polygon>
      <polygon points="30 32 0 24 30 45" fill="#FFFFFF" fill-opacity="0.1"></polygon>
    </g>
    
    <!-- Animated Connections -->
    <circle r="2.5" fill="#FFA000">
      <animateMotion path="M65,50 L75,50 L75,80" dur="2s" repeatCount="indefinite" />
    </circle>
    <circle r="2.5" fill="#FFA000">
      <animateMotion path="M100,120 L100,130 L90,130" dur="2s" repeatCount="indefinite" />
    </circle>
    
    <!-- Circuit Board Lines -->
    <path d="M20,50 L40,50" stroke="#00ffaa" stroke-width="1"></path>
    <path d="M20,150 L40,150" stroke="#00ffaa" stroke-width="1"></path>
    <path d="M150,30 L180,30" stroke="#00ffaa" stroke-width="1"></path>
    <path d="M170,30 L170,70" stroke="#00ffaa" stroke-width="1"></path>
    <path d="M125,80 L145,80" stroke="#00ffaa" stroke-width="1"></path>
    <path d="M150,110 L180,110" stroke="#00ffaa" stroke-width="1"></path>
    
    <!-- Glowing Circles -->
    <circle cx="20" cy="50" r="3" fill="#00ffaa" filter="url(#glow)"></circle>
    <circle cx="20" cy="150" r="3" fill="#00ffaa" filter="url(#glow)"></circle>
    <circle cx="180" cy="30" r="3" fill="#00ffaa" filter="url(#glow)"></circle>
    <circle cx="145" cy="80" r="3" fill="#00ffaa" filter="url(#glow)"></circle>
    <circle cx="180" cy="110" r="3" fill="#00ffaa" filter="url(#glow)"></circle>
  </g>
</svg>