<?xml version="1.0" encoding="UTF-8"?>
<svg width="200px" height="200px" viewBox="0 0 200 200" version="1.1" xmlns="http://www.w3.org/2000/svg" xmlns:xlink="http://www.w3.org/1999/xlink">
  <defs>
    <linearGradient x1="0%" y1="0%" x2="100%" y2="100%" id="jsGradient">
      <stop stop-color="#F7DF1E" offset="0%"></stop>
      <stop stop-color="#EAB308" offset="100%"></stop>
    </linearGradient>
    <linearGradient x1="0%" y1="0%" x2="100%" y2="100%" id="reactGradient">
      <stop stop-color="#61DAFB" offset="0%"></stop>
      <stop stop-color="#39A9DB" offset="100%"></stop>
    </linearGradient>
    <filter id="glow" x="-20%" y="-20%" width="140%" height="140%">
      <feGaussianBlur stdDeviation="4" result="blur" />
      <feComposite in="SourceGraphic" in2="blur" operator="over" />
    </filter>
  </defs>

  <g id="javascript-react" stroke="none" stroke-width="1" fill="none" fill-rule="evenodd">
    <!-- JavaScript Logo -->
    <g id="javascript" transform="translate(30, 40)" filter="url(#glow)">
      <rect x="0" y="0" width="60" height="60" fill="url(#jsGradient)"></rect>
      <path d="M39.5,46.3 C41.6,49.4 44.3,51.7 48.8,51.7 C52.7,51.7 55.2,49.6 55.2,46.8 C55.2,43.4 52.5,42.2 48.2,40.1 L45.9,39.1 C39,36 34.7,32.1 34.7,24.6 C34.7,17.8 40,12.6 48.3,12.6 C54.2,12.6 58.5,14.8 61.5,20.4 L54.2,25 C52.6,22.2 50.9,21 48.3,21 C45.6,21 43.9,22.7 43.9,25 C43.9,27.9 45.7,29.1 49.6,31 L51.9,32 C60,35.7 64.3,39.4 64.3,47.2 C64.3,55.3 57.8,60.2 49,60.2 C40.4,60.2 34.7,55.9 31.8,50.3 L39.5,46.3 Z M16.3,47.1 C17.7,49.7 19,51.8 22,51.8 C24.8,51.8 26.5,50.7 26.5,46.2 L26.5,13.4 L35.8,13.4 L35.8,46.4 C35.8,56 30.2,60.2 22.5,60.2 C15.5,60.2 11,56.4 8.9,51.6 L16.3,47.1 Z" fill="#000000"></path>
    </g>

    <!-- React Logo -->
    <g id="react" transform="translate(60, 80)" filter="url(#glow)">
      <!-- React Orbit 1 -->
      <ellipse id="orbit1" cx="40" cy="40" rx="70" ry="25" stroke="url(#reactGradient)" stroke-width="2" transform="rotate(0, 40, 40)">
        <animateTransform attributeName="transform" type="rotate" from="0 40 40" to="360 40 40" dur="10s" repeatCount="indefinite" />
      </ellipse>
      
      <!-- React Orbit 2 -->
      <ellipse id="orbit2" cx="40" cy="40" rx="70" ry="25" stroke="url(#reactGradient)" stroke-width="2" transform="rotate(60, 40, 40)">
        <animateTransform attributeName="transform" type="rotate" from="60 40 40" to="420 40 40" dur="10s" repeatCount="indefinite" />
      </ellipse>
      
      <!-- React Orbit 3 -->
      <ellipse id="orbit3" cx="40" cy="40" rx="70" ry="25" stroke="url(#reactGradient)" stroke-width="2" transform="rotate(120, 40, 40)">
        <animateTransform attributeName="transform" type="rotate" from="120 40 40" to="480 40 40" dur="10s" repeatCount="indefinite" />
      </ellipse>
      
      <!-- React Core -->
      <circle cx="40" cy="40" r="10" fill="url(#reactGradient)"></circle>
    </g>

    <!-- Circuit Board Lines -->
    <path d="M10,100 L40,100" stroke="#00ffaa" stroke-width="1"></path>
    <path d="M170,80 L190,80" stroke="#00ffaa" stroke-width="1"></path>
    <path d="M150,140 L180,140" stroke="#00ffaa" stroke-width="1"></path>
    <path d="M20,160 L40,160" stroke="#00ffaa" stroke-width="1"></path>
    <path d="M20,40 L20,70" stroke="#00ffaa" stroke-width="1"></path>
    <path d="M180,110 L180,130" stroke="#00ffaa" stroke-width="1"></path>
    
    <!-- Glowing Circles -->
    <circle cx="10" cy="100" r="3" fill="#00ffaa" filter="url(#glow)"></circle>
    <circle cx="190" cy="80" r="3" fill="#00ffaa" filter="url(#glow)"></circle>
    <circle cx="180" cy="140" r="3" fill="#00ffaa" filter="url(#glow)"></circle>
    <circle cx="20" cy="160" r="3" fill="#00ffaa" filter="url(#glow)"></circle>
    <circle cx="20" cy="40" r="3" fill="#00ffaa" filter="url(#glow)"></circle>
    <circle cx="180" cy="110" r="3" fill="#00ffaa" filter="url(#glow)"></circle>
  </g>
</svg>