<?xml version="1.0" encoding="UTF-8"?>
<svg width="200px" height="200px" viewBox="0 0 200 200" version="1.1" xmlns="http://www.w3.org/2000/svg" xmlns:xlink="http://www.w3.org/1999/xlink">
  <defs>
    <linearGradient x1="0%" y1="0%" x2="100%" y2="100%" id="mlGradient">
      <stop stop-color="#FF4081" offset="0%"></stop>
      <stop stop-color="#C51162" offset="100%"></stop>
    </linearGradient>
    <linearGradient x1="0%" y1="0%" x2="100%" y2="100%" id="neuronGradient">
      <stop stop-color="#7B1FA2" offset="0%"></stop>
      <stop stop-color="#4A148C" offset="100%"></stop>
    </linearGradient>
    <filter id="glow" x="-20%" y="-20%" width="140%" height="140%">
      <feGaussianBlur stdDeviation="4" result="blur" />
      <feComposite in="SourceGraphic" in2="blur" operator="over" />
    </filter>
  </defs>

  <g id="machine-learning" stroke="none" stroke-width="1" fill="none" fill-rule="evenodd">
    <!-- Neural Network -->
    <g id="neural-network" transform="translate(25, 25)" filter="url(#glow)">
      <!-- Input Layer -->
      <circle cx="20" cy="40" r="8" fill="url(#neuronGradient)"></circle>
      <circle cx="20" cy="75" r="8" fill="url(#neuronGradient)"></circle>
      <circle cx="20" cy="110" r="8" fill="url(#neuronGradient)"></circle>
      
      <!-- Hidden Layer 1 -->
      <circle cx="75" cy="30" r="8" fill="url(#neuronGradient)"></circle>
      <circle cx="75" cy="60" r="8" fill="url(#neuronGradient)"></circle>
      <circle cx="75" cy="90" r="8" fill="url(#neuronGradient)"></circle>
      <circle cx="75" cy="120" r="8" fill="url(#neuronGradient)"></circle>
      
      <!-- Output Layer -->
      <circle cx="130" cy="60" r="8" fill="url(#neuronGradient)"></circle>
      <circle cx="130" cy="90" r="8" fill="url(#neuronGradient)"></circle>
      
      <!-- Connections: Input to Hidden Layer -->
      <path d="M28,40 L67,30" stroke="url(#mlGradient)" stroke-width="1"></path>
      <path d="M28,40 L67,60" stroke="url(#mlGradient)" stroke-width="1"></path>
      <path d="M28,40 L67,90" stroke="url(#mlGradient)" stroke-width="1"></path>
      <path d="M28,40 L67,120" stroke="url(#mlGradient)" stroke-width="1"></path>
      
      <path d="M28,75 L67,30" stroke="url(#mlGradient)" stroke-width="1"></path>
      <path d="M28,75 L67,60" stroke="url(#mlGradient)" stroke-width="1"></path>
      <path d="M28,75 L67,90" stroke="url(#mlGradient)" stroke-width="1"></path>
      <path d="M28,75 L67,120" stroke="url(#mlGradient)" stroke-width="1"></path>
      
      <path d="M28,110 L67,30" stroke="url(#mlGradient)" stroke-width="1"></path>
      <path d="M28,110 L67,60" stroke="url(#mlGradient)" stroke-width="1"></path>
      <path d="M28,110 L67,90" stroke="url(#mlGradient)" stroke-width="1"></path>
      <path d="M28,110 L67,120" stroke="url(#mlGradient)" stroke-width="1"></path>
      
      <!-- Connections: Hidden to Output Layer -->
      <path d="M83,30 L122,60" stroke="url(#mlGradient)" stroke-width="1"></path>
      <path d="M83,30 L122,90" stroke="url(#mlGradient)" stroke-width="1"></path>
      
      <path d="M83,60 L122,60" stroke="url(#mlGradient)" stroke-width="1"></path>
      <path d="M83,60 L122,90" stroke="url(#mlGradient)" stroke-width="1"></path>
      
      <path d="M83,90 L122,60" stroke="url(#mlGradient)" stroke-width="1"></path>
      <path d="M83,90 L122,90" stroke="url(#mlGradient)" stroke-width="1"></path>
      
      <path d="M83,120 L122,60" stroke="url(#mlGradient)" stroke-width="1"></path>
      <path d="M83,120 L122,90" stroke="url(#mlGradient)" stroke-width="1"></path>
      
      <!-- Animated Signal Pulses -->
      <circle r="2.5" fill="#FF4081">
        <animateMotion path="M28,40 L67,30" dur="1.5s" repeatCount="indefinite" />
      </circle>
      
      <circle r="2.5" fill="#FF4081">
        <animateMotion path="M28,75 L67,90" dur="1.2s" repeatCount="indefinite" />
      </circle>
      
      <circle r="2.5" fill="#FF4081">
        <animateMotion path="M28,110 L67,60" dur="1.8s" repeatCount="indefinite" />
      </circle>
      
      <circle r="2.5" fill="#FF4081">
        <animateMotion path="M83,30 L122,60" dur="1.3s" repeatCount="indefinite" />
      </circle>
      
      <circle r="2.5" fill="#FF4081">
        <animateMotion path="M83,90 L122,90" dur="1.7s" repeatCount="indefinite" />
      </circle>
    </g>
    
    <!-- Circuit Board Lines -->
    <path d="M10,100 L25,100" stroke="#00ffaa" stroke-width="1"></path>
    <path d="M170,80 L190,80" stroke="#00ffaa" stroke-width="1"></path>
    <path d="M150,140 L180,140" stroke="#00ffaa" stroke-width="1"></path>
    <path d="M20,160 L40,160" stroke="#00ffaa" stroke-width="1"></path>
    <path d="M20,40 L25,40" stroke="#00ffaa" stroke-width="1"></path>
    <path d="M180,110 L180,140" stroke="#00ffaa" stroke-width="1"></path>
    <path d="M155,60 L170,60" stroke="#00ffaa" stroke-width="1"></path>
    <path d="M155,90 L170,90" stroke="#00ffaa" stroke-width="1"></path>
    
    <!-- Glowing Circles -->
    <circle cx="10" cy="100" r="3" fill="#00ffaa" filter="url(#glow)"></circle>
    <circle cx="190" cy="80" r="3" fill="#00ffaa" filter="url(#glow)"></circle>
    <circle cx="180" cy="140" r="3" fill="#00ffaa" filter="url(#glow)"></circle>
    <circle cx="20" cy="160" r="3" fill="#00ffaa" filter="url(#glow)"></circle>
    <circle cx="20" cy="40" r="3" fill="#00ffaa" filter="url(#glow)"></circle>
    <circle cx="170" cy="60" r="3" fill="#00ffaa" filter="url(#glow)"></circle>
    <circle cx="170" cy="90" r="3" fill="#00ffaa" filter="url(#glow)"></circle>
  </g>
</svg>