<?xml version="1.0" encoding="UTF-8"?>
<svg width="200px" height="200px" viewBox="0 0 200 200" version="1.1" xmlns="http://www.w3.org/2000/svg" xmlns:xlink="http://www.w3.org/1999/xlink">
  <defs>
    <linearGradient x1="0%" y1="0%" x2="100%" y2="100%" id="pythonGradient">
      <stop stop-color="#366A96" offset="0%"></stop>
      <stop stop-color="#3679B0" offset="100%"></stop>
    </linearGradient>
    <linearGradient x1="0%" y1="0%" x2="100%" y2="100%" id="djangoGradient">
      <stop stop-color="#0C4B33" offset="0%"></stop>
      <stop stop-color="#44B78B" offset="100%"></stop>
    </linearGradient>
    <filter id="glow" x="-20%" y="-20%" width="140%" height="140%">
      <feGaussianBlur stdDeviation="4" result="blur" />
      <feComposite in="SourceGraphic" in2="blur" operator="over" />
    </filter>
  </defs>

  <g id="python-django" stroke="none" stroke-width="1" fill="none" fill-rule="evenodd">
    <!-- Python Logo -->
    <g id="python" transform="translate(30, 40)" filter="url(#glow)">
      <path d="M63.4,0 C57.8,-0.1 52.4,0.4 47.7,1.4 C33.9,4.3 31.6,10.8 31.6,19.5 L31.6,30.6 L64,30.6 L64,35.2 L20.4,35.2 C11.8,35.2 4.3,40.3 1.3,50.8 C-2.2,63 -2.3,70.6 1.3,83.3 C3.9,92.8 9.8,99.5 18.4,99.5 L28.6,99.5 L28.6,84.5 C28.6,74.7 37.1,65.2 47.2,65.2 L79.5,65.2 C87.7,65.2 94.2,58.2 94.2,49.8 L94.2,19.5 C94.2,11.4 87.5,5.3 79.5,3.6 C74.3,2.4 69.1,0.1 63.4,0 Z M46.9,10.3 C49.9,10.3 52.3,12.8 52.3,15.9 C52.3,19 49.9,21.4 46.9,21.4 C43.8,21.4 41.4,19 41.4,15.9 C41.4,12.8 43.8,10.3 46.9,10.3 Z" fill="url(#pythonGradient)"></path>
      <path d="M97.2,35.2 L97.2,49.8 C97.2,60.3 88.5,69.9 78.2,69.9 L45.9,69.9 C37.9,69.9 31.6,76.7 31.6,84.8 L31.6,115.1 C31.6,123.2 38.5,128 46.4,130.2 C56.1,132.9 65.5,133.2 78.2,130.2 C87,128.1 94.2,123.4 94.2,115.1 L94.2,104 L61.9,104 L61.9,99.5 L111.2,99.5 C119.8,99.5 123,94.1 126.6,83.6 C130.3,72.8 130.2,62.4 126.6,50.8 C124,42.3 119.8,35.2 111.2,35.2 L97.2,35.2 Z M79.5,113.8 C82.6,113.8 85,116.2 85,119.3 C85,122.5 82.6,124.9 79.5,124.9 C76.5,124.9 74.1,122.5 74.1,119.3 C74.1,116.2 76.5,113.8 79.5,113.8 Z" fill="url(#pythonGradient)"></path>
    </g>

    <!-- Django Logo -->
    <g id="django" transform="translate(40, 130)">
      <path d="M14,0 L14,41.5 C20.4,43.3 25.6,44 31.8,44 C44.9,44 50.3,37.7 50.3,26.7 L50.3,0 L36.8,0 L36.8,25.7 C36.8,31.4 35.2,33.6 31.1,33.6 C29.1,33.6 27.3,33.3 25.4,32.7 L25.4,0 L14,0 Z" fill="url(#djangoGradient)"></path>
      <path d="M91.8,14.2 L91.8,32.2 C91.8,44.8 90.5,50.2 87.1,55.1 C83.9,59.8 79.4,62.4 70.2,62.4 C61.3,62.4 56.4,59.7 53,54.8 L61.8,48.6 C63.8,51.5 66.1,52.7 70,52.7 C74.4,52.7 76.9,50.6 78.1,47.2 C79,44.7 79.2,43.3 79.2,31.8 L79.2,30.9 C76.3,33.5 73.1,34.7 68.8,34.7 C57.3,34.7 50.2,27.3 50.2,15.4 C50.2,3.1 57.5,-0.5 68.2,-0.5 C73.1,-0.5 76.9,0.8 81,3.9 L81.9,0.6 L91.8,0.6 L91.8,14.2 Z M79.4,15.7 C79.4,9.9 76.4,6.8 71.3,6.8 C66.2,6.8 63.4,9.9 63.4,15.7 C63.4,21.5 66.2,24.6 71.3,24.6 C76.3,24.6 79.4,21.5 79.4,15.7 Z" fill="url(#djangoGradient)"></path>
      <path d="M119.3,0 L119.3,34 L106.7,34 L106.7,30.4 C103.3,33.4 100.2,34.7 96,34.7 C85.8,34.7 79.1,27.2 79.1,17.4 C79.1,7.4 85.6,0 96,0 C100.3,0 103.2,1.2 106.7,4.2 L106.7,0 L119.3,0 Z M106.8,17.3 C106.8,11.8 103.9,8.7 99.1,8.7 C94.2,8.7 91.4,11.9 91.4,17.3 C91.4,22.8 94.2,26 99.1,26 C103.9,26 106.8,22.9 106.8,17.3 Z" fill="url(#djangoGradient)"></path>
    </g>

    <!-- Circuit Board Lines -->
    <path d="M10,100 L40,100" stroke="#00ffaa" stroke-width="1"></path>
    <path d="M170,80 L190,80" stroke="#00ffaa" stroke-width="1"></path>
    <path d="M150,140 L180,140" stroke="#00ffaa" stroke-width="1"></path>
    <path d="M20,160 L40,160" stroke="#00ffaa" stroke-width="1"></path>
    <path d="M20,40 L20,70" stroke="#00ffaa" stroke-width="1"></path>
    <path d="M180,110 L180,130" stroke="#00ffaa" stroke-width="1"></path>
    
    <!-- Glowing Circles -->
    <circle cx="10" cy="100" r="3" fill="#00ffaa" filter="url(#glow)"></circle>
    <circle cx="190" cy="80" r="3" fill="#00ffaa" filter="url(#glow)"></circle>
    <circle cx="180" cy="140" r="3" fill="#00ffaa" filter="url(#glow)"></circle>
    <circle cx="20" cy="160" r="3" fill="#00ffaa" filter="url(#glow)"></circle>
    <circle cx="20" cy="40" r="3" fill="#00ffaa" filter="url(#glow)"></circle>
    <circle cx="180" cy="110" r="3" fill="#00ffaa" filter="url(#glow)"></circle>
  </g>
</svg>