<?xml version="1.0" encoding="UTF-8"?>
<svg width="200px" height="200px" viewBox="0 0 200 200" version="1.1" xmlns="http://www.w3.org/2000/svg" xmlns:xlink="http://www.w3.org/1999/xlink">
  <defs>
    <linearGradient x1="0%" y1="0%" x2="100%" y2="100%" id="nodeGradient">
      <stop stop-color="#8CC84B" offset="0%"></stop>
      <stop stop-color="#3E863D" offset="100%"></stop>
    </linearGradient>
    <linearGradient x1="0%" y1="0%" x2="100%" y2="100%" id="expressGradient">
      <stop stop-color="#FFFFFF" offset="0%"></stop>
      <stop stop-color="#CCCCCC" offset="100%"></stop>
    </linearGradient>
    <filter id="glow" x="-20%" y="-20%" width="140%" height="140%">
      <feGaussianBlur stdDeviation="4" result="blur" />
      <feComposite in="SourceGraphic" in2="blur" operator="over" />
    </filter>
  </defs>

  <g id="node-express" stroke="none" stroke-width="1" fill="none" fill-rule="evenodd">
    <!-- Node.js Logo -->
    <g id="node" transform="translate(35, 40)" filter="url(#glow)">
      <path d="M64.4,30.3 C63.8,29.9 62.9,29.9 62.2,30.3 L32.5,47.5 C31.9,47.9 31.5,48.5 31.5,49.3 L31.5,83.7 C31.5,84.4 31.9,85.1 32.5,85.5 L62.2,102.7 C62.5,103 62.9,103.1 63.3,103.1 C63.7,103.1 64.1,103 64.4,102.7 L94.1,85.5 C94.7,85.1 95.1,84.4 95.1,83.7 L95.1,49.3 C95.1,48.5 94.7,47.9 94.1,47.5 L64.4,30.3 Z" fill="url(#nodeGradient)"></path>
    </g>

    <!-- Express Logo -->
    <g id="express" transform="translate(60, 120)" filter="url(#glow)">
      <path d="M0,0 L25,0 L35,10 L45,0 L70,0 L70,10 L50,30 L70,50 L70,60 L45,60 L35,50 L25,60 L0,60 L0,50 L20,30 L0,10 Z" fill="url(#expressGradient)"></path>
      <path d="M5,10 L15,10 M55,10 L65,10 M35,5 L35,15 M5,50 L15,50 M55,50 L65,50 M35,45 L35,55" stroke="#000" stroke-width="2"></path>
    </g>

    <!-- Circuit Board Lines -->
    <path d="M10,100 L40,100" stroke="#00ffaa" stroke-width="1"></path>
    <path d="M170,80 L190,80" stroke="#00ffaa" stroke-width="1"></path>
    <path d="M150,140 L180,140" stroke="#00ffaa" stroke-width="1"></path>
    <path d="M20,160 L40,160" stroke="#00ffaa" stroke-width="1"></path>
    <path d="M20,40 L20,70" stroke="#00ffaa" stroke-width="1"></path>
    <path d="M180,110 L180,130" stroke="#00ffaa" stroke-width="1"></path>
    
    <!-- Glowing Circles -->
    <circle cx="10" cy="100" r="3" fill="#00ffaa" filter="url(#glow)"></circle>
    <circle cx="190" cy="80" r="3" fill="#00ffaa" filter="url(#glow)"></circle>
    <circle cx="180" cy="140" r="3" fill="#00ffaa" filter="url(#glow)"></circle>
    <circle cx="20" cy="160" r="3" fill="#00ffaa" filter="url(#glow)"></circle>
    <circle cx="20" cy="40" r="3" fill="#00ffaa" filter="url(#glow)"></circle>
    <circle cx="180" cy="110" r="3" fill="#00ffaa" filter="url(#glow)"></circle>
    
    <!-- Data Flow Animation -->
    <circle cx="100" cy="100" r="2" fill="#00ffaa">
      <animateMotion path="M0,0 C20,-20 40,-25 80,-10 C120,5 140,0 160,-20" dur="3s" repeatCount="indefinite" />
    </circle>
    <circle cx="100" cy="100" r="2" fill="#00ffaa">
      <animateMotion path="M0,0 C20,-20 40,-25 80,-10 C120,5 140,0 160,-20" dur="3s" begin="1s" repeatCount="indefinite" />
    </circle>
    <circle cx="100" cy="100" r="2" fill="#00ffaa">
      <animateMotion path="M0,0 C20,-20 40,-25 80,-10 C120,5 140,0 160,-20" dur="3s" begin="2s" repeatCount="indefinite" />
    </circle>
  </g>
</svg>